<svg width="205" height="57" fill="none" xmlns="http://www.w3.org/2000/svg"><path d="M49.72 42c-1.316 0-2.324-.336-3.024-1.008-.672-.7-1.008-1.694-1.008-2.982V16.38c0-1.288.336-2.268 1.008-2.94.7-.7 1.708-1.05 3.024-1.05h14.238c1.008 0 1.764.252 2.268.756.504.504.756 1.232.756 2.184 0 .98-.252 1.736-.756 2.268-.504.504-1.26.756-2.268.756H53.08v5.628h9.954c.98 0 1.722.252 2.226.756.532.504.798 1.246.798 2.226s-.266 1.722-.798 2.226c-.504.504-1.246.756-2.226.756H53.08v6.09h10.878c1.008 0 1.764.266 2.268.798.504.504.756 1.232.756 2.184 0 .98-.252 1.722-.756 2.226s-1.26.756-2.268.756H49.72zm31.764.462c-2.324 0-4.354-.434-6.09-1.302-1.708-.868-3.038-2.114-3.99-3.738-.952-1.652-1.428-3.584-1.428-5.796 0-1.68.266-3.178.798-4.494.532-1.344 1.302-2.478 2.31-3.402 1.036-.924 2.254-1.624 3.654-2.1 1.428-.504 3.01-.756 4.746-.756.812 0 1.666.084 2.562.252.896.14 1.82.42 2.772.84.672.252 1.134.644 1.386 1.176.28.504.392 1.05.336 1.638a3.161 3.161 0 01-.504 1.596 2.1 2.1 0 01-1.218.966c-.504.168-1.078.098-1.722-.21a5.02 5.02 0 00-1.428-.462 6.044 6.044 0 00-1.386-.168c-.756 0-1.428.112-2.016.336-.56.224-1.036.56-1.428 1.008-.392.42-.7.952-.924 1.596-.196.644-.294 1.372-.294 2.184 0 1.624.406 2.898 1.218 3.822.812.924 1.96 1.386 3.444 1.386.448 0 .91-.042 1.386-.126.476-.112.952-.28 1.428-.504.644-.308 1.218-.364 1.722-.168.504.168.91.49 1.218.966.308.476.476 1.008.504 1.596a3.13 3.13 0 01-.378 1.638c-.28.504-.756.882-1.428 1.134-.924.42-1.834.7-2.73.84-.868.168-1.708.252-2.52.252zm19.849 0c-2.296 0-4.298-.434-6.006-1.302-1.708-.868-3.038-2.114-3.99-3.738-.952-1.624-1.428-3.542-1.428-5.754 0-1.68.266-3.178.798-4.494.532-1.344 1.302-2.478 2.31-3.402 1.008-.952 2.212-1.666 3.612-2.142 1.4-.504 2.968-.756 4.704-.756 2.296 0 4.298.434 6.006 1.302 1.708.868 3.024 2.114 3.948 3.738.952 1.596 1.428 3.514 1.428 5.754 0 1.652-.266 3.15-.798 4.494a9.455 9.455 0 01-2.31 3.444c-.98.924-2.184 1.638-3.612 2.142-1.4.476-2.954.714-4.662.714zm0-5.502c.756 0 1.428-.182 2.016-.546.588-.392 1.036-.966 1.344-1.722.336-.784.504-1.792.504-3.024 0-1.876-.364-3.22-1.092-4.032-.728-.84-1.652-1.26-2.772-1.26-.756 0-1.428.182-2.016.546-.588.364-1.05.938-1.386 1.722-.336.756-.504 1.764-.504 3.024 0 1.848.364 3.192 1.092 4.032.728.84 1.666 1.26 2.814 1.26zm19.176 5.418c-1.232 0-2.184-.336-2.856-1.008-.672-.7-1.008-1.666-1.008-2.898V16.296c0-1.26.336-2.226 1.008-2.898.7-.672 1.666-1.008 2.898-1.008h10.332c3.36 0 5.95.826 7.77 2.478 1.848 1.624 2.772 3.892 2.772 6.804 0 1.876-.42 3.514-1.26 4.914-.812 1.372-2.002 2.436-3.57 3.192-1.54.728-3.444 1.092-5.712 1.092l.336-.756h2.016c1.204 0 2.268.294 3.192.882.924.56 1.694 1.428 2.31 2.604l2.1 3.78c.448.812.658 1.61.63 2.394-.028.756-.336 1.386-.924 1.89-.56.476-1.386.714-2.478.714-1.092 0-1.988-.224-2.688-.672-.672-.448-1.274-1.148-1.806-2.1l-3.822-7.014c-.336-.616-.77-1.036-1.302-1.26-.504-.252-1.092-.378-1.764-.378h-2.31v7.518c0 1.232-.322 2.198-.966 2.898-.644.672-1.61 1.008-2.898 1.008zm3.864-16.884h5.124c1.484 0 2.618-.294 3.402-.882.784-.588 1.176-1.498 1.176-2.73 0-1.176-.392-2.058-1.176-2.646-.784-.616-1.918-.924-3.402-.924h-5.124v7.182zm25.118 16.884c-1.176 0-2.086-.35-2.73-1.05-.644-.7-.966-1.708-.966-3.024V25.032c0-1.316.322-2.324.966-3.024.644-.7 1.554-1.05 2.73-1.05 1.204 0 2.128.35 2.772 1.05.672.7 1.008 1.708 1.008 3.024v13.272c0 1.316-.322 2.324-.966 3.024-.644.7-1.582 1.05-2.814 1.05zm0-24.402c-1.316 0-2.338-.308-3.066-.924-.7-.616-1.05-1.512-1.05-2.688 0-1.148.35-2.03 1.05-2.646.728-.616 1.75-.924 3.066-.924 1.372 0 2.408.308 3.108.924.7.616 1.05 1.498 1.05 2.646 0 1.176-.35 2.072-1.05 2.688-.7.616-1.736.924-3.108.924zm16.181 24.486c-1.764 0-3.332-.434-4.704-1.302-1.344-.868-2.408-2.114-3.192-3.738-.756-1.624-1.134-3.542-1.134-5.754 0-2.268.378-4.2 1.134-5.796.784-1.596 1.848-2.828 3.192-3.696 1.372-.868 2.94-1.302 4.704-1.302 1.54 0 2.926.364 4.158 1.092 1.232.728 2.058 1.666 2.478 2.814h-.462v-8.988c0-1.232.322-2.17.966-2.814.644-.644 1.568-.966 2.772-.966 1.176 0 2.086.322 2.73.966.672.644 1.008 1.582 1.008 2.814v22.806c0 1.232-.322 2.17-.966 2.814-.616.644-1.526.966-2.73.966-1.176 0-2.086-.322-2.73-.966-.644-.644-.966-1.582-.966-2.814v-2.394l.462 2.058c-.392 1.26-1.218 2.282-2.478 3.066-1.232.756-2.646 1.134-4.242 1.134zm2.394-5.502c.756 0 1.428-.182 2.016-.546.588-.392 1.036-.966 1.344-1.722.336-.784.504-1.792.504-3.024 0-1.876-.364-3.22-1.092-4.032-.728-.84-1.652-1.26-2.772-1.26-.756 0-1.428.182-2.016.546-.588.364-1.05.938-1.386 1.722-.336.756-.504 1.764-.504 3.024 0 1.848.364 3.192 1.092 4.032.728.84 1.666 1.26 2.814 1.26zm26.843 5.502c-2.52 0-4.704-.434-6.552-1.302-1.82-.896-3.22-2.156-4.2-3.78-.98-1.624-1.47-3.542-1.47-5.754 0-2.128.462-3.99 1.386-5.586a10.02 10.02 0 013.864-3.78c1.652-.924 3.528-1.386 5.628-1.386 1.54 0 2.94.252 4.2.756a8.501 8.501 0 013.234 2.142c.896.924 1.568 2.044 2.016 3.36.476 1.316.714 2.786.714 4.41 0 .56-.154.98-.462 1.26-.308.252-.798.378-1.47.378h-12.852v-3.528h9.324l-.672.546c0-1.036-.14-1.876-.42-2.52-.28-.644-.7-1.134-1.26-1.47-.532-.336-1.204-.504-2.016-.504-.868 0-1.624.21-2.268.63-.616.392-1.092.98-1.428 1.764-.336.784-.504 1.764-.504 2.94v.378c0 1.988.434 3.416 1.302 4.284.896.84 2.268 1.26 4.116 1.26.616 0 1.316-.07 2.1-.21a14.747 14.747 0 002.31-.672c.728-.28 1.358-.322 1.89-.126.532.168.938.476 1.218.924.308.42.476.91.504 1.47.028.532-.098 1.064-.378 1.596-.28.504-.742.896-1.386 1.176-.98.448-2.03.784-3.15 1.008a16.47 16.47 0 01-3.318.336z" fill="#073B3A"/><path d="M18.395 44c-1.226 0-2.462-.132-3.706-.395a25.855 25.855 0 01-3.82-1.138 29.59 29.59 0 013.903-11.948c2.155-3.7 4.923-6.96 8.305-9.78-4.088 1.974-7.627 4.582-10.618 7.824-2.99 3.242-5.081 6.943-6.272 11.102a3.85 3.85 0 01-.417-.343l-.419-.397c-1.746-1.657-3.075-3.507-3.984-5.551A15.592 15.592 0 010 26.977c0-2.396.502-4.687 1.505-6.872a18.724 18.724 0 014.18-5.816c3.01-2.855 6.913-4.713 11.706-5.576 4.794-.863 11.52-.943 20.179-.24.669 8.424.557 14.848-.334 19.272-.892 4.424-2.825 8.044-5.798 10.863a19.933 19.933 0 01-6.104 3.992 17.89 17.89 0 01-6.94 1.4z" fill="#4DBA6F"/></svg>