<svg width="171" height="45" fill="none" xmlns="http://www.w3.org/2000/svg"><path d="M41.544 33c-1.042 0-1.84-.266-2.395-.798-.532-.555-.798-1.342-.798-2.362V12.71c0-1.02.266-1.796.798-2.329.555-.554 1.353-.831 2.395-.831H52.82c.798 0 1.397.2 1.796.599.4.399.6.975.6 1.73 0 .775-.2 1.374-.6 1.796-.399.399-.998.598-1.796.598h-8.615v4.457h7.883c.776 0 1.364.2 1.763.6.422.398.632.986.632 1.762s-.21 1.364-.632 1.763c-.399.4-.986.599-1.763.599h-7.883v4.823h8.615c.798 0 1.397.21 1.796.632.4.399.6.975.6 1.73 0 .776-.2 1.363-.6 1.762-.399.4-.998.599-1.796.599H41.544zm25.156.366c-1.84 0-3.448-.344-4.823-1.031a7.544 7.544 0 01-3.16-2.96c-.754-1.309-1.13-2.839-1.13-4.59 0-1.331.21-2.518.631-3.56a7.18 7.18 0 011.83-2.694 8.31 8.31 0 012.893-1.663c1.131-.4 2.384-.6 3.759-.6.643 0 1.32.067 2.029.2.71.111 1.441.333 2.195.666.533.2.898.51 1.098.931.222.4.31.832.266 1.297a2.503 2.503 0 01-.399 1.264 1.663 1.663 0 01-.965.765c-.399.133-.853.078-1.363-.166a3.975 3.975 0 00-1.131-.366 4.787 4.787 0 00-1.098-.133c-.599 0-1.13.089-1.597.266-.443.178-.82.444-1.13.799-.311.332-.555.753-.732 1.264a5.937 5.937 0 00-.233 1.73c0 1.285.321 2.294.965 3.026.643.732 1.552 1.098 2.727 1.098.355 0 .72-.034 1.098-.1a5.745 5.745 0 001.13-.4c.51-.243.965-.287 1.364-.132.4.133.721.388.965.765s.377.798.4 1.264a2.48 2.48 0 01-.3 1.297c-.222.4-.599.698-1.131.898a8.337 8.337 0 01-2.162.665c-.688.133-1.353.2-1.996.2zm15.72 0c-1.818 0-3.404-.344-4.756-1.031a7.544 7.544 0 01-3.16-2.96c-.754-1.287-1.131-2.806-1.131-4.558 0-1.33.21-2.517.632-3.559a7.18 7.18 0 011.83-2.694c.797-.754 1.751-1.32 2.86-1.696 1.109-.4 2.35-.6 3.725-.6 1.819 0 3.404.345 4.757 1.032 1.352.688 2.395 1.674 3.126 2.96.754 1.264 1.131 2.783 1.131 4.557 0 1.309-.21 2.495-.632 3.56a7.487 7.487 0 01-1.83 2.727c-.775.732-1.729 1.297-2.86 1.696-1.108.377-2.34.566-3.692.566zm0-4.357c.599 0 1.131-.145 1.597-.433.466-.31.82-.765 1.064-1.364.266-.62.4-1.419.4-2.395 0-1.485-.289-2.55-.865-3.193-.577-.665-1.309-.998-2.196-.998-.599 0-1.13.144-1.596.433-.466.288-.832.743-1.098 1.363-.266.6-.4 1.398-.4 2.395 0 1.464.29 2.528.866 3.194.576.665 1.319.998 2.228.998zm15.187 4.29c-.976 0-1.73-.266-2.262-.798-.532-.554-.799-1.32-.799-2.295V12.643c0-.998.267-1.763.799-2.295.554-.532 1.32-.798 2.295-.798h8.183c2.661 0 4.712.654 6.153 1.962 1.464 1.287 2.195 3.083 2.195 5.389 0 1.486-.332 2.783-.997 3.892-.644 1.086-1.586 1.929-2.828 2.528-1.219.576-2.727.864-4.523.864l.266-.598h1.596c.954 0 1.796.233 2.528.698.732.444 1.342 1.131 1.83 2.063l1.663 2.993c.355.643.521 1.275.499 1.896-.022.599-.266 1.098-.732 1.497-.444.377-1.098.565-1.963.565-.864 0-1.574-.177-2.128-.532-.533-.355-1.009-.909-1.431-1.663l-3.027-5.555c-.266-.488-.609-.82-1.031-.998-.399-.2-.865-.3-1.397-.3h-1.829v5.955c0 .976-.255 1.74-.765 2.295-.51.532-1.275.798-2.295.798zm3.06-13.371h4.058c1.175 0 2.073-.233 2.694-.699.621-.465.931-1.186.931-2.162 0-.931-.31-1.63-.931-2.095-.621-.488-1.519-.732-2.694-.732h-4.058v5.688zm19.893 13.371c-.932 0-1.652-.277-2.162-.831-.51-.555-.765-1.353-.765-2.395V19.562c0-1.042.255-1.84.765-2.395.51-.554 1.23-.832 2.162-.832.953 0 1.685.278 2.195.832.532.554.798 1.353.798 2.395v10.51c0 1.043-.255 1.841-.765 2.396-.51.554-1.253.831-2.228.831zm0-19.325c-1.043 0-1.852-.244-2.429-.732-.554-.488-.831-1.197-.831-2.129 0-.909.277-1.607.831-2.095.577-.488 1.386-.732 2.429-.732 1.086 0 1.907.244 2.461.732.554.488.832 1.186.832 2.095 0 .932-.278 1.641-.832 2.129-.554.488-1.375.732-2.461.732zm12.814 19.392c-1.397 0-2.639-.344-3.725-1.031-1.065-.688-1.907-1.675-2.528-2.96-.599-1.287-.898-2.806-.898-4.558 0-1.796.299-3.326.898-4.59.621-1.264 1.463-2.24 2.528-2.927 1.086-.687 2.328-1.031 3.725-1.031 1.22 0 2.317.288 3.293.865.976.576 1.63 1.32 1.963 2.228h-.366v-7.118c0-.976.255-1.718.765-2.228.51-.51 1.241-.765 2.195-.765.931 0 1.652.255 2.162.765.532.51.798 1.252.798 2.228v18.062c0 .975-.255 1.718-.765 2.228-.488.51-1.208.765-2.162.765-.931 0-1.652-.255-2.162-.765s-.765-1.253-.765-2.228V28.41l.366 1.63c-.31.998-.965 1.807-1.962 2.428-.976.598-2.096.898-3.36.898zm1.896-4.357c.599 0 1.131-.145 1.597-.433.465-.31.82-.765 1.064-1.364.266-.62.399-1.419.399-2.395 0-1.485-.288-2.55-.865-3.193-.576-.665-1.308-.998-2.195-.998-.599 0-1.131.144-1.597.433-.465.288-.831.743-1.097 1.363-.266.6-.399 1.398-.399 2.395 0 1.464.288 2.528.864 3.194.577.665 1.32.998 2.229.998zm21.259 4.357c-1.996 0-3.726-.344-5.189-1.031-1.442-.71-2.55-1.708-3.327-2.994-.776-1.286-1.164-2.805-1.164-4.557 0-1.685.366-3.16 1.098-4.424a7.937 7.937 0 013.06-2.993c1.308-.732 2.794-1.098 4.457-1.098 1.22 0 2.329.2 3.327.599a6.74 6.74 0 012.561 1.696c.709.732 1.242 1.619 1.596 2.661.377 1.042.566 2.206.566 3.493 0 .443-.122.776-.366.997-.244.2-.632.3-1.164.3h-10.179V23.22h7.385l-.533.432c0-.82-.11-1.485-.332-1.995a2.46 2.46 0 00-.998-1.165c-.421-.266-.954-.399-1.597-.399-.687 0-1.286.166-1.796.5-.488.31-.865.775-1.131 1.396-.266.621-.399 1.397-.399 2.329v.299c0 1.574.344 2.705 1.031 3.393.71.665 1.796.998 3.26.998.488 0 1.042-.056 1.663-.167.643-.133 1.253-.31 1.83-.532.576-.222 1.075-.255 1.496-.1.422.133.743.377.965.732.244.333.377.72.399 1.164a2.41 2.41 0 01-.299 1.264c-.222.4-.588.71-1.098.931-.776.355-1.608.621-2.495.799a13.03 13.03 0 01-2.627.266z" fill="#073B3A"/><path d="M14.794 33.013c-.938 0-1.883-.1-2.836-.297a20.084 20.084 0 01-2.923-.854 21.903 21.903 0 012.986-8.964c1.65-2.776 3.769-5.223 6.357-7.338-3.129 1.48-5.837 3.438-8.126 5.87-2.289 2.433-3.889 5.21-4.8 8.33a2.923 2.923 0 01-.319-.257l-.32-.298c-1.337-1.243-2.354-2.631-3.05-4.165a11.504 11.504 0 01-1.046-4.8c0-1.798.384-3.516 1.152-5.156a14.058 14.058 0 013.2-4.363c2.303-2.142 5.289-3.537 8.957-4.184 3.67-.647 8.817-.707 15.443-.18.512 6.32.426 11.14-.256 14.46-.683 3.319-2.162 6.035-4.437 8.15a15.284 15.284 0 01-4.672 2.995 13.928 13.928 0 01-5.31 1.05z" fill="#4DBA6F"/></svg>