<svg width="171" height="45" viewBox="0 0 171 45" fill="none" xmlns="http://www.w3.org/2000/svg">
<path d="M41.5442 33C40.502 33 39.7037 32.7339 39.1493 32.2017C38.6171 31.6473 38.351 30.8601 38.351 29.8401V12.7098C38.351 11.6898 38.6171 10.9137 39.1493 10.3815C39.7037 9.82709 40.502 9.5499 41.5442 9.5499H52.8202C53.6185 9.5499 54.2172 9.74947 54.6164 10.1486C55.0155 10.5478 55.2151 11.1243 55.2151 11.8783C55.2151 12.6544 55.0155 13.2531 54.6164 13.6745C54.2172 14.0736 53.6185 14.2732 52.8202 14.2732H44.2052V18.7304H52.0884C52.8645 18.7304 53.4522 18.9299 53.8513 19.3291C54.2727 19.7282 54.4833 20.3159 54.4833 21.092C54.4833 21.8681 54.2727 22.4558 53.8513 22.8549C53.4522 23.2541 52.8645 23.4536 52.0884 23.4536H44.2052V28.2767H52.8202C53.6185 28.2767 54.2172 28.4874 54.6164 28.9087C55.0155 29.3079 55.2151 29.8844 55.2151 30.6384C55.2151 31.4145 55.0155 32.0021 54.6164 32.4013C54.2172 32.8004 53.6185 33 52.8202 33H41.5442ZM66.7 33.3659C64.8595 33.3659 63.2518 33.0222 61.877 32.3347C60.5243 31.6473 59.471 30.6605 58.717 29.3744C57.9631 28.0661 57.5861 26.536 57.5861 24.7841C57.5861 23.4536 57.7968 22.2673 58.2181 21.2251C58.6394 20.1607 59.2492 19.2626 60.0475 18.5308C60.868 17.799 61.8326 17.2446 62.9414 16.8677C64.0723 16.4685 65.3252 16.2689 66.7 16.2689C67.3431 16.2689 68.0194 16.3355 68.729 16.4685C69.4386 16.5794 70.1704 16.8011 70.9244 17.1338C71.4566 17.3333 71.8225 17.6438 72.022 18.0651C72.2438 18.4643 72.3325 18.8967 72.2881 19.3624C72.266 19.828 72.1329 20.2494 71.889 20.6263C71.6672 21.0033 71.3457 21.2583 70.9244 21.3914C70.5252 21.5244 70.0706 21.469 69.5606 21.2251C69.2058 21.0477 68.8288 20.9257 68.4297 20.8592C68.0527 20.7705 67.6868 20.7261 67.332 20.7261C66.7333 20.7261 66.2011 20.8148 65.7354 20.9922C65.2919 21.1696 64.9149 21.4357 64.6045 21.7905C64.294 22.1231 64.0501 22.5445 63.8727 23.0545C63.7175 23.5645 63.6399 24.1411 63.6399 24.7841C63.6399 26.0703 63.9614 27.0793 64.6045 27.811C65.2476 28.5428 66.1567 28.9087 67.332 28.9087C67.6868 28.9087 68.0527 28.8754 68.4297 28.8089C68.8067 28.7202 69.1836 28.5872 69.5606 28.4098C70.0706 28.1658 70.5252 28.1215 70.9244 28.2767C71.3235 28.4098 71.6451 28.6648 71.889 29.0418C72.1329 29.4187 72.266 29.8401 72.2881 30.3057C72.3103 30.7492 72.2105 31.1816 71.9888 31.603C71.767 32.0021 71.3901 32.3015 70.8579 32.5011C70.1261 32.8337 69.4054 33.0554 68.6958 33.1663C68.0084 33.2994 67.3431 33.3659 66.7 33.3659ZM82.4202 33.3659C80.6019 33.3659 79.0164 33.0222 77.6637 32.3347C76.311 31.6473 75.2577 30.6605 74.5037 29.3744C73.7498 28.0882 73.3728 26.5692 73.3728 24.8174C73.3728 23.4869 73.5835 22.3005 74.0048 21.2583C74.4261 20.1939 75.0359 19.2958 75.8342 18.5641C76.6325 17.8101 77.5861 17.2446 78.6948 16.8677C79.8036 16.4685 81.0454 16.2689 82.4202 16.2689C84.2386 16.2689 85.8241 16.6126 87.1768 17.3001C88.5294 17.9875 89.5717 18.9743 90.3035 20.2604C91.0574 21.5244 91.4344 23.0434 91.4344 24.8174C91.4344 26.1257 91.2237 27.3121 90.8024 28.3765C90.3811 29.4409 89.7712 30.3501 88.9729 31.104C88.1968 31.8358 87.2433 32.4013 86.1124 32.8004C85.0036 33.1774 83.7729 33.3659 82.4202 33.3659ZM82.4202 29.0085C83.019 29.0085 83.5512 28.8644 84.0168 28.5761C84.4825 28.2656 84.8373 27.811 85.0812 27.2123C85.3473 26.5914 85.4804 25.7931 85.4804 24.8174C85.4804 23.3317 85.1921 22.2673 84.6156 21.6242C84.039 20.959 83.3072 20.6263 82.4202 20.6263C81.8215 20.6263 81.2893 20.7705 80.8236 21.0587C80.3579 21.347 79.9921 21.8016 79.726 22.4225C79.4599 23.0212 79.3268 23.8195 79.3268 24.8174C79.3268 26.281 79.6151 27.3454 80.1916 28.0106C80.7682 28.6759 81.511 29.0085 82.4202 29.0085ZM97.6067 33.2994C96.631 33.2994 95.877 33.0333 95.3448 32.5011C94.8126 31.9467 94.5465 31.1816 94.5465 30.2059V12.6433C94.5465 11.6454 94.8126 10.8804 95.3448 10.3482C95.8992 9.816 96.6642 9.5499 97.6399 9.5499H105.823C108.484 9.5499 110.535 10.2041 111.976 11.5124C113.44 12.7985 114.171 14.5947 114.171 16.9009C114.171 18.3867 113.839 19.6839 113.174 20.7926C112.53 21.8792 111.588 22.7219 110.346 23.3206C109.127 23.8971 107.619 24.1854 105.823 24.1854L106.089 23.5867H107.685C108.639 23.5867 109.481 23.8195 110.213 24.2852C110.945 24.7287 111.555 25.4161 112.043 26.3475L113.706 29.3411C114.061 29.9842 114.227 30.6162 114.205 31.2371C114.183 31.8358 113.939 32.3347 113.473 32.7339C113.029 33.1109 112.375 33.2994 111.51 33.2994C110.646 33.2994 109.936 33.122 109.382 32.7672C108.849 32.4124 108.373 31.858 107.951 31.104L104.924 25.5492C104.658 25.0613 104.315 24.7287 103.893 24.5513C103.494 24.3517 103.028 24.2519 102.496 24.2519H100.667V30.2059C100.667 31.1816 100.412 31.9467 99.9018 32.5011C99.3918 33.0333 98.6267 33.2994 97.6067 33.2994ZM100.667 19.9278H104.725C105.9 19.9278 106.798 19.695 107.419 19.2293C108.04 18.7636 108.35 18.0429 108.35 17.0672C108.35 16.1359 108.04 15.4374 107.419 14.9717C106.798 14.4838 105.9 14.2399 104.725 14.2399H100.667V19.9278ZM120.56 33.2994C119.628 33.2994 118.908 33.0222 118.398 32.4678C117.888 31.9134 117.633 31.1151 117.633 30.0729V19.5619C117.633 18.5197 117.888 17.7214 118.398 17.167C118.908 16.6126 119.628 16.3355 120.56 16.3355C121.513 16.3355 122.245 16.6126 122.755 17.167C123.287 17.7214 123.553 18.5197 123.553 19.5619V30.0729C123.553 31.1151 123.298 31.9134 122.788 32.4678C122.278 33.0222 121.535 33.2994 120.56 33.2994ZM120.56 13.9738C119.517 13.9738 118.708 13.7299 118.131 13.242C117.577 12.7542 117.3 12.0446 117.3 11.1132C117.3 10.2041 117.577 9.50555 118.131 9.0177C118.708 8.52985 119.517 8.28592 120.56 8.28592C121.646 8.28592 122.467 8.52985 123.021 9.0177C123.575 9.50555 123.853 10.2041 123.853 11.1132C123.853 12.0446 123.575 12.7542 123.021 13.242C122.467 13.7299 121.646 13.9738 120.56 13.9738ZM133.374 33.3659C131.977 33.3659 130.735 33.0222 129.649 32.3347C128.584 31.6473 127.742 30.6605 127.121 29.3744C126.522 28.0882 126.223 26.5692 126.223 24.8174C126.223 23.0212 126.522 21.4912 127.121 20.2272C127.742 18.9632 128.584 17.9875 129.649 17.3001C130.735 16.6126 131.977 16.2689 133.374 16.2689C134.594 16.2689 135.691 16.5572 136.667 17.1338C137.643 17.7103 138.297 18.4532 138.63 19.3624H138.264V12.2442C138.264 11.2685 138.519 10.5256 139.029 10.0156C139.539 9.50555 140.27 9.25053 141.224 9.25053C142.155 9.25053 142.876 9.50555 143.386 10.0156C143.918 10.5256 144.184 11.2685 144.184 12.2442V30.3057C144.184 31.2814 143.929 32.0243 143.419 32.5343C142.931 33.0444 142.211 33.2994 141.257 33.2994C140.326 33.2994 139.605 33.0444 139.095 32.5343C138.585 32.0243 138.33 31.2814 138.33 30.3057V28.4098L138.696 30.0396C138.386 31.0375 137.731 31.8469 136.734 32.4678C135.758 33.0665 134.638 33.3659 133.374 33.3659ZM135.27 29.0085C135.869 29.0085 136.401 28.8644 136.867 28.5761C137.332 28.2656 137.687 27.811 137.931 27.2123C138.197 26.5914 138.33 25.7931 138.33 24.8174C138.33 23.3317 138.042 22.2673 137.465 21.6242C136.889 20.959 136.157 20.6263 135.27 20.6263C134.671 20.6263 134.139 20.7705 133.673 21.0587C133.208 21.347 132.842 21.8016 132.576 22.4225C132.31 23.0212 132.177 23.8195 132.177 24.8174C132.177 26.281 132.465 27.3454 133.041 28.0106C133.618 28.6759 134.361 29.0085 135.27 29.0085ZM156.529 33.3659C154.533 33.3659 152.803 33.0222 151.34 32.3347C149.898 31.6251 148.79 30.6273 148.013 29.3411C147.237 28.055 146.849 26.536 146.849 24.7841C146.849 23.0988 147.215 21.6242 147.947 20.3602C148.701 19.0741 149.721 18.0762 151.007 17.3666C152.315 16.6348 153.801 16.2689 155.464 16.2689C156.684 16.2689 157.793 16.4685 158.791 16.8677C159.788 17.2446 160.642 17.8101 161.352 18.5641C162.061 19.2958 162.594 20.1828 162.948 21.2251C163.325 22.2673 163.514 23.4315 163.514 24.7176C163.514 25.1611 163.392 25.4937 163.148 25.7155C162.904 25.9151 162.516 26.0149 161.984 26.0149H151.805V23.2208H159.19L158.657 23.6532C158.657 22.8327 158.547 22.1675 158.325 21.6575C158.103 21.1474 157.77 20.7594 157.327 20.4933C156.906 20.2272 156.373 20.0941 155.73 20.0941C155.043 20.0941 154.444 20.2604 153.934 20.5931C153.446 20.9035 153.069 21.3692 152.803 21.9901C152.537 22.611 152.404 23.3871 152.404 24.3185V24.6178C152.404 26.1923 152.748 27.3232 153.435 28.0106C154.145 28.6759 155.231 29.0085 156.695 29.0085C157.183 29.0085 157.737 28.9531 158.358 28.8422C159.001 28.7091 159.611 28.5317 160.188 28.31C160.764 28.0882 161.263 28.055 161.684 28.2102C162.106 28.3432 162.427 28.5872 162.649 28.942C162.893 29.2746 163.026 29.6627 163.048 30.1062C163.07 30.5275 162.971 30.9488 162.749 31.3701C162.527 31.7693 162.161 32.0797 161.651 32.3015C160.875 32.6563 160.043 32.9224 159.156 33.0998C158.292 33.2772 157.416 33.3659 156.529 33.3659Z" fill="#073B3A"/>
<path d="M14.7943 33.0125C13.8558 33.0125 12.9105 32.9136 11.9584 32.7158C11.0062 32.518 10.0319 32.2334 9.03544 31.8622C9.3767 28.6626 10.3721 25.6745 12.0215 22.898C13.671 20.1215 15.7897 17.6755 18.3776 15.56C15.2493 17.0408 12.5408 18.9976 10.2521 21.4304C7.96329 23.8632 6.36332 26.6397 5.45214 29.76C5.33839 29.6806 5.23202 29.595 5.13306 29.5029L4.81227 29.2047C3.47564 27.9618 2.45924 26.5736 1.76305 25.0399C1.06687 23.5062 0.718209 21.9064 0.717072 20.2405C0.717072 18.4423 1.101 16.7235 1.86884 15.0841C2.63669 13.4446 3.70315 11.9902 5.06822 10.721C7.37176 8.57907 10.3578 7.18446 14.0265 6.53714C17.6951 5.88981 22.8425 5.83005 29.4688 6.35785C29.9807 12.6777 29.8953 17.4973 29.2128 20.8164C28.5303 24.1355 27.0514 26.8523 24.7763 28.9667C23.3828 30.2624 21.8255 31.2609 20.1044 31.9621C18.3833 32.6634 16.6133 33.0135 14.7943 33.0125Z" fill="#4DBA6F"/>
</svg>
