<svg width="28" height="28" viewBox="0 0 28 28" fill="none" xmlns="http://www.w3.org/2000/svg">
<path d="M13.5541 28C12.6505 28 11.7403 27.8975 10.8235 27.6924C9.90679 27.4874 8.96868 27.1924 8.00922 26.8076C8.3378 23.4907 9.29617 20.3931 10.8843 17.5149C12.4725 14.6366 14.5124 12.101 17.0042 9.90802C13.9922 11.4431 11.3843 13.4716 9.18062 15.9935C6.97692 18.5154 5.43641 21.3937 4.55909 24.6283C4.44957 24.5461 4.34716 24.4573 4.25187 24.3619L3.943 24.0527C2.65605 22.7643 1.67742 21.3252 1.00711 19.7353C0.336798 18.1454 0.00109528 16.4869 0 14.76C0 12.8959 0.369656 11.1142 1.10897 9.41461C1.84828 7.71506 2.8751 6.20739 4.18944 4.89161C6.40738 2.67124 9.28248 1.22552 12.8148 0.554475C16.347 -0.116572 21.3032 -0.178524 27.6832 0.368621C28.176 6.92011 28.0939 11.9162 27.4367 15.357C26.7795 18.7978 25.3557 21.6141 23.1651 23.806C21.8234 25.1491 20.324 26.1842 18.6668 26.9112C17.0097 27.6382 15.3054 28.0011 13.5541 28Z" fill="#4DBA6F"/>
</svg>
